<?xml version="1.0" encoding="UTF-8"?>
<svg id="Layer_1" data-name="Layer 1" xmlns="http://www.w3.org/2000/svg" version="1.1" viewBox="0 0 740.4 362.2">
  <defs>
    <style>
      .cls-1 {
        fill: #010101;
        fill-rule: evenodd;
      }

      .cls-1, .cls-2 {
        stroke-width: 0px;
      }

      .cls-2 {
        fill: #f5c518;
      }
    </style>
  </defs>
  <path class="cls-2" d="M698.1,0H42.3C19,0,0,19,0,42.3v277.6c0,23.3,19,42.3,42.3,42.3h655.8c23.3,0,42.3-19,42.3-42.3V42.3c0-23.3-19-42.3-42.3-42.3h0Z"/>
  <g>
    <path class="cls-1" d="M219.5,56.8l-14.7,114.6-9-62.3c-2.7-20-5.2-37.5-7.7-52.3h-82.5v245.3h55.8l.2-162,23.4,162h39.7l22.4-165.5v165.5h55.8V56.8h-83.2,0Z"/>
    <path class="cls-1" d="M401.6,302.2c15.2,0,26.6-.8,34.3-2.5,7.5-1.7,13.9-4.5,19-8.8,5.1-4.2,8.8-10,10.8-17.4,2.1-7.4,3.3-22.1,3.3-44.1v-86.1c0-23.2-1-38.8-2.3-46.7-1.4-7.8-5-15.1-10.7-21.5-5.6-6.4-13.9-11.1-24.7-13.9-10.8-2.9-28.7-4.3-59.5-4.3h-47.5v245.3h77.2ZM402.2,101.1c2.5,1.4,4.2,3.7,4.9,6.9.7,3.1,1.1,10.2,1.1,21.3v95c0,16.4-1.1,26.4-3.2,30.1-2.1,3.7-7.7,5.5-16.9,5.5V98.8c6.9,0,11.6.7,14.1,2.2Z"/>
    <path class="cls-1" d="M490.7,56.8v245.3h57.3l4-15.6c5.1,6.3,10.8,10.9,17.1,14.1,6.3,3.1,15.6,4.6,22.8,4.6s18.8-2.6,26-8c7.4-5.2,12-11.5,13.9-18.7,2-7.2,3-18.2,3-32.8v-68.8c0-14.9-.2-24.5-1-29-.6-4.5-2.6-9.2-5.8-13.9-3.3-4.8-8-8.4-14.2-11.1-6.3-2.6-13.5-3.9-22-3.9s-16.6,1.4-22.9,4.4c-6.2,2.8-11.9,7.2-17,13.1V56.8h-61.4ZM573.6,242.7c0,11.8-.6,19.4-1.8,22.5s-6.3,4.6-10.2,4.6-6.3-1.4-7.6-4.5c-1.2-3-1.9-9.9-1.9-20.7v-64.8c0-11.2.6-18.1,1.7-20.9,1.2-2.7,3.7-4.2,7.4-4.2s9.1,1.7,10.5,4.8c1.3,3.2,2,10,2,20.3v62.9h0Z"/>
  </g>
</svg>